<?xml version="1.0" encoding="utf-8"?>
<!-- Generator: Adobe Illustrator 22.0.1, SVG Export Plug-In . SVG Version: 6.00 Build 0)  -->
<svg version="1.1" id="Layer_1" xmlns="http://www.w3.org/2000/svg" xmlns:xlink="http://www.w3.org/1999/xlink" x="0px" y="0px" width="24" height="96"
	 viewBox="0 0 24 96" style="enable-background:new 0 0 24 96;" xml:space="preserve">
<style type="text/css">
	.st0{fill:#606065;}
	.st1{fill:#2D2D32;}
	.st2{fill:#FFFFFF;}
	.st3{fill:#FC4C01;}
</style>
<g id="Icons">
	<path class="st0" d="M19,11.2c-0.6,0-1.1,0.1-1.7,0.3l-2-4.3h2.2c0.3,0,0.5,0.2,0.5,0.5c0,0.2-0.1,0.3-0.2,0.4
		c-0.2,0.1-0.3,0.4-0.2,0.7C17.7,9,18,9.1,18.2,9c0.7-0.4,1-1.3,0.5-2c-0.3-0.5-0.8-0.7-1.3-0.7h-3c-0.3,0-0.5,0.2-0.5,0.5
		c0,0.1,0,0.1,0,0.2l0.8,1.8H9L7.8,6.2H9c0.3,0,0.5-0.2,0.5-0.5S9.3,5.2,9,5.2H5c-0.3,0-0.5,0.2-0.5,0.5S4.8,6.2,5,6.2h1.7l1.4,3
		l-1.2,2.4c-2.5-1-5.5,0.2-6.5,2.7s0.2,5.5,2.7,6.5s5.5-0.2,6.5-2.7c0.2-0.4,0.3-0.9,0.3-1.4h2c0.1,0,0.2,0,0.2-0.1l0.1,0
		c0,0,0.1-0.1,0.1-0.1l0,0l0,0l3.2-6.1l0.8,1.6c-2.3,1.5-3,4.5-1.6,6.9s4.5,3,6.9,1.6s3-4.5,1.6-6.9C22.3,12,20.7,11.1,19,11.2z
		 M14.8,9.7L12,15L9.5,9.7H14.8z M5,20.1c-2.2,0-4-1.8-4-4s1.8-4,4-4c0.5,0,1,0.1,1.4,0.3l-1.8,3.5c-0.1,0.2,0,0.5,0.2,0.7
		c0.1,0,0.1,0.1,0.2,0.1H9C8.7,18.6,7,20.1,5,20.1z M7.3,12.9c0.9,0.6,1.5,1.7,1.7,2.8H5.8L7.3,12.9z M10,15.6
		c-0.1-1.5-1-2.8-2.2-3.7l0.9-1.7l2.6,5.4H10z M19,20.1c-2.2,0-4-1.8-4-4c0-1.4,0.7-2.6,1.8-3.4l1.7,3.6c0.1,0.2,0.4,0.3,0.7,0.2
		c0.2-0.1,0.3-0.4,0.2-0.6l-1.7-3.6c0.4-0.1,0.8-0.2,1.2-0.2c2.2,0,4,1.8,4,4S21.2,20.1,19,20.1z"/>
</g>
<g id="Icons_1_">
	<path class="st1" d="M19,35.1c-0.6,0-1.1,0.1-1.7,0.3l-2-4.3h2.2c0.3,0,0.5,0.2,0.5,0.5c0,0.2-0.1,0.3-0.2,0.4
		c-0.2,0.1-0.3,0.4-0.2,0.7s0.4,0.3,0.7,0.2c0.7-0.4,1-1.3,0.5-2c-0.3-0.5-0.8-0.7-1.3-0.7h-3c-0.3,0-0.5,0.2-0.5,0.5
		c0,0.1,0,0.1,0,0.2l0.8,1.8H9l-1.2-2.5H9c0.3,0,0.5-0.2,0.5-0.5S9.3,29.1,9,29.1H5c-0.3,0-0.5,0.2-0.5,0.5s0.2,0.5,0.5,0.5h1.7
		l1.4,3l-1.2,2.4c-2.5-1-5.5,0.2-6.5,2.7s0.2,5.5,2.7,6.5s5.5-0.2,6.5-2.7c0.2-0.4,0.3-0.9,0.3-1.4h2c0.1,0,0.2,0,0.2-0.1l0.1,0
		c0,0,0.1-0.1,0.1-0.1l0,0l0,0l3.2-6.1l0.8,1.6c-2.3,1.5-3,4.5-1.6,6.9s4.5,3,6.9,1.6s3-4.5,1.6-6.9C22.3,35.9,20.7,35,19,35.1z
		 M14.8,33.6L12,38.9l-2.5-5.4H14.8z M5,44c-2.2,0-4-1.8-4-4s1.8-4,4-4c0.5,0,1,0.1,1.4,0.3l-1.8,3.5c-0.1,0.2,0,0.5,0.2,0.7
		c0.1,0,0.1,0.1,0.2,0.1H9C8.7,42.5,7,44,5,44z M7.3,36.8c0.9,0.6,1.5,1.7,1.7,2.8H5.8L7.3,36.8z M10,39.5c-0.1-1.5-1-2.8-2.2-3.7
		l0.9-1.7l2.6,5.4H10z M19,44c-2.2,0-4-1.8-4-4c0-1.4,0.7-2.6,1.8-3.4l1.7,3.6c0.1,0.2,0.4,0.3,0.7,0.2c0.2-0.1,0.3-0.4,0.2-0.6
		l-1.7-3.6c0.4-0.1,0.8-0.2,1.2-0.2c2.2,0,4,1.8,4,4C23,42.2,21.2,44,19,44z"/>
</g>
<g id="Icons_2_">
	<path class="st2" d="M19,59c-0.6,0-1.1,0.1-1.7,0.3l-2-4.3h2.2c0.3,0,0.5,0.2,0.5,0.5c0,0.2-0.1,0.3-0.2,0.4
		c-0.2,0.1-0.3,0.4-0.2,0.7s0.4,0.3,0.7,0.2c0.7-0.4,1-1.3,0.5-2C18.5,54.3,18,54,17.5,54h-3c-0.3,0-0.5,0.2-0.5,0.5
		c0,0.1,0,0.1,0,0.2l0.8,1.8H9L7.8,54H9c0.3,0,0.5-0.2,0.5-0.5S9.3,53,9,53H5c-0.3,0-0.5,0.2-0.5,0.5S4.8,54,5,54h1.7l1.4,3
		l-1.2,2.4c-2.5-1-5.5,0.2-6.5,2.7c-1,2.5,0.2,5.5,2.7,6.5c2.5,1,5.5-0.2,6.5-2.7c0.2-0.4,0.3-0.9,0.3-1.4h2c0.1,0,0.2,0,0.2-0.1
		l0.1,0c0,0,0.1-0.1,0.1-0.1l0,0l0,0l3.2-6.1l0.8,1.6c-2.3,1.5-3,4.5-1.6,6.9c1.5,2.3,4.5,3,6.9,1.6s3-4.5,1.6-6.9
		C22.3,59.8,20.7,58.9,19,59z M14.8,57.5L12,62.8l-2.5-5.4H14.8z M5,67.9c-2.2,0-4-1.8-4-4s1.8-4,4-4c0.5,0,1,0.1,1.4,0.3l-1.8,3.5
		c-0.1,0.2,0,0.5,0.2,0.7c0.1,0,0.1,0.1,0.2,0.1H9C8.7,66.4,7,67.9,5,67.9z M7.3,60.7c0.9,0.6,1.5,1.7,1.7,2.8H5.8L7.3,60.7z
		 M10,63.4c-0.1-1.5-1-2.8-2.2-3.7l0.9-1.7l2.6,5.4H10z M19,67.9c-2.2,0-4-1.8-4-4c0-1.4,0.7-2.6,1.8-3.4l1.7,3.6
		c0.1,0.2,0.4,0.3,0.7,0.2c0.2-0.1,0.3-0.4,0.2-0.6l-1.7-3.6C18.1,60,18.5,60,19,60c2.2,0,4,1.8,4,4S21.2,67.9,19,67.9z"/>
</g>
<g id="Icons_3_">
	<path class="st3" d="M19,82.9c-0.6,0-1.1,0.1-1.7,0.3l-2-4.3h2.2c0.3,0,0.5,0.2,0.5,0.5c0,0.2-0.1,0.3-0.2,0.4
		c-0.2,0.1-0.3,0.4-0.2,0.7c0.1,0.2,0.4,0.3,0.7,0.2c0.7-0.4,1-1.3,0.5-2c-0.3-0.5-0.8-0.7-1.3-0.7h-3c-0.3,0-0.5,0.2-0.5,0.5
		c0,0.1,0,0.1,0,0.2l0.8,1.8H9l-1.2-2.5H9c0.3,0,0.5-0.2,0.5-0.5S9.3,76.9,9,76.9H5c-0.3,0-0.5,0.2-0.5,0.5s0.2,0.5,0.5,0.5h1.7
		l1.4,3l-1.2,2.4c-2.5-1-5.5,0.2-6.5,2.7c-1,2.5,0.2,5.5,2.7,6.5c2.5,1,5.5-0.2,6.5-2.7c0.2-0.4,0.3-0.9,0.3-1.4h2
		c0.1,0,0.2,0,0.2-0.1l0.1,0c0,0,0.1-0.1,0.1-0.1l0,0l0,0l3.2-6.1l0.8,1.6c-2.3,1.5-3,4.5-1.6,6.9c1.5,2.3,4.5,3,6.9,1.6
		c2.3-1.5,3-4.5,1.6-6.9C22.3,83.7,20.7,82.8,19,82.9z M14.8,81.4L12,86.7l-2.5-5.4H14.8z M5,91.8c-2.2,0-4-1.8-4-4c0-2.2,1.8-4,4-4
		c0.5,0,1,0.1,1.4,0.3l-1.8,3.5c-0.1,0.2,0,0.5,0.2,0.7c0.1,0,0.1,0.1,0.2,0.1H9C8.7,90.3,7,91.8,5,91.8z M7.3,84.6
		c0.9,0.6,1.5,1.7,1.7,2.8H5.8L7.3,84.6z M10,87.3c-0.1-1.5-1-2.8-2.2-3.7L8.7,82l2.6,5.4H10z M19,91.8c-2.2,0-4-1.8-4-4
		c0-1.4,0.7-2.6,1.8-3.4l1.7,3.6c0.1,0.2,0.4,0.3,0.7,0.2c0.2-0.1,0.3-0.4,0.2-0.6l-1.7-3.6c0.4-0.1,0.8-0.2,1.2-0.2
		c2.2,0,4,1.8,4,4C23,90,21.2,91.8,19,91.8z"/>
</g>
</svg>
