<svg xmlns="http://www.w3.org/2000/svg" width="24" height="96" viewBox="0 0 24 96"><g fill="none"><path fill="#FC4C02" d="M22 12c0 5.523-4.477 10-10 10v2c6.627 0 12-5.373 12-12h-2zM12 22C6.477 22 2 17.523 2 12H0c0 6.627 5.373 12 12 12v-2zM2 12C2 6.477 6.477 2 12 2V0C5.373 0 0 5.373 0 12h2zM12 2c5.523 0 10 4.477 10 10h2c0-6.627-5.373-12-12-12v2zM22 84c0 5.523-4.477 10-10 10v2c6.627 0 12-5.373 12-12h-2zM12 94C6.477 94 2 89.523 2 84H0c0 6.627 5.373 12 12 12v-2zM2 84c0-5.523 4.477-10 10-10v-2C5.373 72 0 77.373 0 84h2zm10-10c5.523 0 10 4.477 10 10h2c0-6.627-5.373-12-12-12v2zM24 36c0 6.627-5.373 12-12 12S0 42.627 0 36s5.373-12 12-12 12 5.373 12 12z"/><path fill="#FFF" d="M12 72c6.627 0 12-5.373 12-12s-5.373-12-12-12S0 53.373 0 60s5.373 12 12 12zm-1-17v4H7v2h4v4h2v-4h4v-2h-4v-4h-2z"/><path fill="#FC4C02" d="M11 11V7h2v4h4v2h-4v4h-2v-4H7v-2zM11 83v-4h2v4h4v2h-4v4h-2v-4H7v-2z"/><path fill="#FFF" d="M11 35v-4h2v4h4v2h-4v4h-2v-4H7v-2z"/></g></svg>
