<?xml version='1.0' encoding='iso-8859-1'?>
<!DOCTYPE svg PUBLIC '-//W3C//DTD SVG 1.1//EN' 'http://www.w3.org/Graphics/SVG/1.1/DTD/svg11.dtd'>
<svg version="1.1" xmlns="http://www.w3.org/2000/svg" viewBox="0 0 448.226 448.226" xmlns:xlink="http://www.w3.org/1999/xlink" enable-background="new 0 0 448.226 448.226">
  <g>
    <path d="m425.792,42.05h-58.72c-12.37,0-22.433,10.063-22.433,22.433v197.775c0,12.101 9.845,21.945 21.945,21.945h59.696c12.101,0 21.945-9.844 21.945-21.945v-197.775c0.001-12.37-10.062-22.433-22.433-22.433zm7.434,220.208c0,3.83-3.116,6.945-6.945,6.945h-59.696c-3.83,0-6.945-3.116-6.945-6.945v-197.775c0-4.099 3.334-7.433 7.433-7.433h58.72c4.099,0 7.434,3.334 7.434,7.433v197.775z"/>
    <path d="m308.638,233.024v-163.474c0-2.761-2.239-5-5-5h-276.138c-2.761,0-5,2.239-5,5v163.474c0,2.761 2.239,5 5,5h276.138c2.761,0 5-2.238 5-5zm-10-5h-266.138v-153.474h266.138v153.474z"/>
    <path d="m113.336,269.203h-20.489c-4.142,0-7.5,3.358-7.5,7.5s3.358,7.5 7.5,7.5h145.444c4.142,0 7.5-3.358 7.5-7.5s-3.358-7.5-7.5-7.5h-20.489l-3.584-8.679h94.974c12.101,0 21.945-9.845 21.945-21.945v-174.584c0-12.101-9.845-21.945-21.945-21.945h-287.247c-12.1,0-21.945,9.845-21.945,21.945v174.583c0,12.101 9.845,21.945 21.945,21.945h94.975l-3.584,8.68zm88.238,0h-72.009l3.584-8.679h64.84l3.585,8.679zm-186.574-30.624v-174.584c0-3.83 3.116-6.945 6.945-6.945h287.247c3.83,0 6.945,3.116 6.945,6.945v174.583c0,3.83-3.116,6.945-6.945,6.945h-287.247c-3.829,0.001-6.945-3.115-6.945-6.944z"/>
    <path d="m423.804,62.41h-54.742c-2.761,0-5,2.239-5,5v118.467c0,2.761 2.239,5 5,5h54.742c2.761,0 5-2.239 5-5v-118.467c0-2.762-2.239-5-5-5zm-5,10v38.467h-44.742v-38.467h44.742zm-44.742,61.799v-13.333h44.742v13.333h-44.742zm44.742,10v13.333h-44.742v-13.333h44.742zm-44.742,36.667v-13.333h44.742v13.333h-44.742z"/>
    <path d="m380.436,199.542c-1.32,0-2.61,0.53-3.54,1.47-0.93,0.92-1.46,2.21-1.46,3.53s0.53,2.61 1.46,3.54 2.22,1.46 3.54,1.46c1.31,0 2.6-0.53 3.53-1.46 0.93-0.94 1.47-2.22 1.47-3.54s-0.54-2.6-1.47-3.53c-0.93-0.94-2.22-1.47-3.53-1.47z"/>
    <path d="m396.436,199.542c-1.32,0-2.61,0.54-3.54,1.47s-1.46,2.21-1.46,3.53 0.53,2.6 1.46,3.54c0.93,0.93 2.22,1.46 3.54,1.46 1.31,0 2.6-0.53 3.53-1.46 0.93-0.93 1.47-2.22 1.47-3.54s-0.54-2.61-1.47-3.53c-0.93-0.93-2.22-1.47-3.53-1.47z"/>
    <path d="m412.436,199.542c-1.32,0-2.61,0.54-3.54,1.47-0.93,0.92-1.46,2.21-1.46,3.53s0.53,2.61 1.46,3.54 2.22,1.46 3.54,1.46c1.31,0 2.6-0.53 3.53-1.46 0.93-0.93 1.47-2.22 1.47-3.54s-0.54-2.61-1.47-3.53c-0.93-0.93-2.22-1.47-3.53-1.47z"/>
    <path d="m283.236,294.509h-235.334c-4.142,0-7.5,3.358-7.5,7.5v96.667c0,4.142 3.358,7.5 7.5,7.5h235.333c4.142,0 7.5-3.358 7.5-7.5v-96.667c0.001-4.142-3.357-7.5-7.499-7.5zm-7.5,96.667h-220.334v-81.667h220.333v81.667z"/>
    <path d="m329.82,307.176c-17.001,0-30.833,13.832-30.833,30.833v21.333c0,17.001 13.832,30.833 30.833,30.833s30.833-13.832 30.833-30.833v-21.333c1.13687e-13-17.001-13.831-30.833-30.833-30.833zm15.011,25.833h-10.011v-10.011c4.711,1.574 8.438,5.3 10.011,10.011zm-20.011-10.011v10.011h-10.012c1.575-4.711 5.301-8.437 10.012-10.011zm5,52.178c-8.73,0-15.833-7.103-15.833-15.833v-16.333h31.667v16.333c-0.001,8.73-7.103,15.833-15.834,15.833z"/>
    <path d="m67.902,383.009h195.333c2.761,0 5-2.239 5-5v-55.333c0-2.761-2.239-5-5-5h-195.333c-2.761,0-5,2.239-5,5v55.333c0,2.762 2.239,5 5,5zm5-18.444h14.417v8.444h-14.417v-8.444zm45.235-18.445v8.445h-14.417v-8.445h14.417zm122.083,0v8.445h-14.417v-8.445h14.417zm-24.416,0v8.445h-14.417v-8.445h14.417zm-24.417,0v8.445h-14.417v-8.445h14.417zm-24.417,0v8.445h-14.417v-8.445h14.417zm-24.417,0v8.445h-14.417v-8.445h14.417zm-30.818,18.445v8.444h-14.416v-8.444h14.416zm10,0h14.417v8.444h-14.417v-8.444zm24.417,0h14.417v8.444h-14.417v-8.444zm24.417,0h14.417v8.444h-14.417v-8.444zm24.417,0h14.417v8.444h-14.417v-8.444zm24.416,0h14.417v8.444h-14.417v-8.444zm30.818-18.445h8.016v8.445h-8.016v-8.445zm-30.818-10v-8.444h14.417v8.444h-14.417zm-10,0h-14.417v-8.444h14.417v8.444zm-24.416,0h-14.417v-8.444h14.417v8.444zm-24.417,0h-14.417v-8.444h14.417v8.444zm-24.417,0h-14.417v-8.444h14.417v8.444zm-24.417,0h-14.416v-8.444h14.417v8.444zm-18.016,10v8.445h-20.818v-8.445h20.818zm150.099,26.889v-8.444h14.417v8.444h-14.417zm14.417-36.889h-14.417v-8.444h14.417v8.444zm-170.917-8.444v8.444h-14.417v-8.444h14.417z"/>
  </g>
</svg>
