<?xml version="1.0" encoding="utf-8"?>
<!-- Generator: Adobe Illustrator 22.0.1, SVG Export Plug-In . SVG Version: 6.00 Build 0)  -->
<svg version="1.1" id="Layer_1" xmlns="http://www.w3.org/2000/svg" xmlns:xlink="http://www.w3.org/1999/xlink" x="0px" y="0px" width="24" height="96"
	 viewBox="0 0 24 96" style="enable-background:new 0 0 24 96;" xml:space="preserve">
<style type="text/css">
	.st0{fill:#606065;}
	.st1{fill:#2D2D32;}
	.st2{fill:#FFFFFF;}
</style>
<g id="Icons">
	<path class="st0" d="M12.7,12l7.7-7.7c0.2-0.2,0.2-0.5,0-0.7c-0.2-0.2-0.5-0.2-0.7,0l0,0L12,11.3L4.3,3.7c-0.2-0.2-0.5-0.2-0.7,0
		s-0.2,0.5,0,0.7l7.7,7.6l-7.6,7.6c-0.2,0.2-0.2,0.5,0,0.7c0.2,0.2,0.5,0.2,0.7,0l7.6-7.6l7.6,7.7c0.2,0.2,0.5,0.2,0.7,0
		s0.2-0.5,0-0.7L12.7,12z"/>
</g>
<g id="Icons_1_">
	<path class="st1" d="M12.7,36l7.7-7.6c0.2-0.2,0.2-0.5,0-0.7c-0.2-0.2-0.5-0.2-0.7,0l0,0L12,35.3l-7.7-7.6c-0.2-0.2-0.5-0.2-0.7,0
		c-0.2,0.2-0.2,0.5,0,0.7l7.7,7.6l-7.6,7.6c-0.2,0.2-0.2,0.5,0,0.7c0.2,0.2,0.5,0.2,0.7,0l7.6-7.6l7.6,7.7c0.2,0.2,0.5,0.2,0.7,0
		s0.2-0.5,0-0.7L12.7,36z"/>
</g>
<g id="Icons_2_">
	<path class="st2" d="M12.7,60l7.7-7.7c0.2-0.2,0.2-0.5,0-0.7c-0.2-0.2-0.5-0.2-0.7,0l0,0L12,59.3l-7.7-7.6c-0.2-0.2-0.5-0.2-0.7,0
		c-0.2,0.2-0.2,0.5,0,0.7l7.7,7.6l-7.6,7.7c-0.2,0.2-0.2,0.5,0,0.7s0.5,0.2,0.7,0l7.6-7.7l7.6,7.7c0.2,0.2,0.5,0.2,0.7,0
		s0.2-0.5,0-0.7L12.7,60z"/>
</g>
</svg>
