<?xml version="1.0" encoding="utf-8"?>
<!-- Generator: Adobe Illustrator 22.0.1, SVG Export Plug-In . SVG Version: 6.00 Build 0)  -->
<svg version="1.1" id="Layer_1" xmlns="http://www.w3.org/2000/svg" xmlns:xlink="http://www.w3.org/1999/xlink" x="0px" y="0px" width="24" height="96"
	 viewBox="0 0 24 96" style="enable-background:new 0 0 24 96;" xml:space="preserve">
<style type="text/css">
	.st0{fill:#606065;}
	.st1{fill:#2D2D32;}
	.st2{fill:#FFFFFF;}
</style>
<g id="Icons">
	<path class="st0" d="M22.8,17.4c-2-1.8-4.1-3.8-4.4-4.1s-1.2-2.9-2.1-5.3c-0.4-2.8-0.9-3.1-1.1-3.3c-0.3-0.2-0.7-0.3-1.1-0.3l0,0
		c-0.7,0.1-1.3,0.3-1.9,0.7c-0.6,0.5-1.4,0.8-2.1,0.9c-0.3,0-0.7-0.1-1-0.2c-0.6-0.2-0.6-0.4-0.6-1c0-0.6-0.2-1.2-0.7-1.6
		C7.7,3.1,7.4,3,7.2,3C5.6,3,3.4,6.6,2.5,8L1.2,8.9C0.9,9.1,0.8,9.5,0.8,9.8c0.3,2.5,2,4.2,5.8,5.6c1.1,0.4,2.1,1,2.9,1.8
		c0.9,0.9,2,1.7,3.1,2.3c1.5,0.9,3.3,1.4,5.1,1.4c2.7,0,5.6-1.1,5.6-2.8C23.2,17.9,23,17.6,22.8,17.4z M17.6,20
		c-1.6,0-3.2-0.4-4.6-1.2c-3.4-2.1-2.9-3-6.1-4.2C3.3,13.1,2,11.7,1.8,9.7l1.5-1C4.6,6.4,6.5,4,7.2,4c0,0,0.1,0,0.2,0
		c0.6,0.4-0.3,2,1.5,2.7C9.3,6.9,9.7,7,10.2,7c1.9,0,3-1.6,4-1.6c0.2,0,0.3,0.1,0.5,0.2c0.4,0.3,0.8,2.7,0.8,2.7L15.7,9h-1.3
		c-0.3,0-0.5,0.2-0.5,0.5S14,10,14.3,10H16l0.4,1h-1.4c-0.3,0-0.5,0.2-0.5,0.5s0.2,0.5,0.5,0.5h1.8l0.4,1h-1.4
		c-0.3,0-0.5,0.2-0.5,0.5s0.2,0.5,0.5,0.5h1.9c0.7,0.8,4.5,4.2,4.5,4.2C22.2,18.9,20.2,20,17.6,20z"/>
</g>
<g id="Icons_1_">
	<path class="st1" d="M22.8,41.4c-2-1.8-4.1-3.8-4.4-4.1s-1.2-2.9-2.1-5.3c-0.4-2.8-0.9-3.1-1.1-3.3c-0.3-0.2-0.7-0.3-1.1-0.3l0,0
		c-0.7,0.1-1.3,0.3-1.9,0.7c-0.6,0.5-1.4,0.8-2.1,0.9c-0.3,0-0.7-0.1-1-0.2c-0.6-0.2-0.6-0.4-0.6-1c0-0.6-0.2-1.2-0.7-1.6
		C7.7,27.1,7.4,27,7.2,27c-1.6,0-3.8,3.6-4.6,5l-1.3,0.9c-0.3,0.2-0.5,0.6-0.4,0.9c0.3,2.5,2,4.2,5.8,5.6c1.1,0.4,2.1,1,2.9,1.8
		c0.9,0.9,2,1.7,3.1,2.3c1.5,0.9,3.3,1.4,5.1,1.4c2.7,0,5.6-1.1,5.6-2.8C23.2,41.9,23,41.6,22.8,41.4z M17.6,44
		c-1.6,0-3.2-0.4-4.6-1.2c-3.4-2.1-2.9-3-6.1-4.2c-3.6-1.4-4.9-2.8-5.1-4.8l1.5-1C4.6,30.4,6.5,28,7.2,28c0,0,0.1,0,0.2,0
		c0.6,0.4-0.3,2,1.5,2.7c0.4,0.2,0.9,0.3,1.3,0.3c1.9,0,3-1.6,4-1.6c0.2,0,0.3,0.1,0.5,0.1c0.4,0.3,0.8,2.7,0.8,2.7l0.3,0.7h-1.3
		c-0.3,0-0.5,0.2-0.5,0.5S14,34,14.3,34H16l0.4,1h-1.4c-0.3,0-0.5,0.2-0.5,0.5s0.2,0.5,0.5,0.5h1.8l0.4,1h-1.4
		c-0.3,0-0.5,0.2-0.5,0.5s0.2,0.5,0.5,0.5h1.9c0.7,0.8,4.5,4.2,4.5,4.2C22.2,42.9,20.2,44,17.6,44z"/>
</g>
<g id="Icons_2_">
	<path class="st2" d="M22.8,65.4c-2-1.8-4.1-3.8-4.4-4.1s-1.2-2.9-2.1-5.3c-0.4-2.8-0.9-3.1-1.1-3.3c-0.3-0.2-0.7-0.3-1.1-0.3l0,0
		c-0.7,0.1-1.3,0.3-1.9,0.7c-0.6,0.5-1.4,0.8-2.1,0.9c-0.3,0-0.7-0.1-1-0.2c-0.6-0.2-0.6-0.4-0.6-1c0-0.6-0.2-1.2-0.7-1.6
		C7.7,51.1,7.4,51,7.2,51c-1.6,0-3.8,3.6-4.6,5l-1.3,0.9c-0.3,0.2-0.5,0.6-0.4,0.9c0.3,2.5,2,4.2,5.8,5.6c1.1,0.4,2.1,1,2.9,1.8
		c0.9,0.9,2,1.7,3.1,2.3c1.5,0.9,3.3,1.4,5.1,1.4c2.7,0,5.6-1.1,5.6-2.8C23.2,65.9,23,65.6,22.8,65.4z M17.6,68
		c-1.6,0-3.2-0.4-4.6-1.2c-3.4-2.1-2.9-3-6.1-4.2c-3.6-1.4-4.9-2.8-5.1-4.8l1.5-1C4.6,54.4,6.5,52,7.2,52c0,0,0.1,0,0.2,0
		c0.6,0.4-0.3,2,1.5,2.7c0.4,0.2,0.9,0.3,1.3,0.3c1.9,0,3-1.6,4-1.6c0.2,0,0.3,0.1,0.5,0.2c0.4,0.3,0.8,2.7,0.8,2.7l0.3,0.7h-1.3
		c-0.3,0-0.5,0.2-0.5,0.5S14,58,14.3,58H16l0.4,1h-1.4c-0.3,0-0.5,0.2-0.5,0.5s0.2,0.5,0.5,0.5h1.8l0.4,1h-1.4
		c-0.3,0-0.5,0.2-0.5,0.5s0.2,0.5,0.5,0.5h1.9c0.7,0.8,4.5,4.2,4.5,4.2C22.2,66.9,20.2,68,17.6,68z"/>
</g>
</svg>
