<?xml version="1.0" encoding="UTF-8"?><svg width="24px" height="24px" viewBox="0 0 24 24" version="1.1" xmlns="http://www.w3.org/2000/svg" xmlns:xlink="http://www.w3.org/1999/xlink"><defs><path d="M10,14 C16.7049127,14 20,8.24099325 20,7 C20,5.75900675 16.7049127,0 10,0 C3.29508728,0 1.08555601e-16,5.75900675 0,7 C0,8.24099325 3.29508728,14 10,14 Z"></path></defs><g stroke="none" stroke-width="1" fill="none" fill-rule="evenodd"><g><g transform="translate(2.000000, 5.000000)" stroke="#666666"><path d="M10,13.5 C12.8548621,13.5 15.2803301,12.4163079 17.1681368,10.6046208 C18.5279933,9.29959603 19.5,7.62094407 19.5,7 C19.5,6.37905593 18.5279933,4.70040397 17.1681368,3.39537917 C15.2803301,1.58369211 12.8548621,0.5 10,0.5 C7.1451379,0.5 4.71966987,1.58369211 2.83186325,3.39537917 C1.47200671,4.70040397 0.5,6.37905593 0.5,7 C0.5,7.62094407 1.47200671,9.29959603 2.83186325,10.6046208 C4.71966987,12.4163079 7.1451379,13.5 10,13.5 Z"></path><ellipse cx="9.99945311" cy="7" rx="2.99945311" ry="3"></ellipse></g><g transform="translate(2.000000, 5.000000)"><g><use fill="#FFFFFF" fill-rule="evenodd" xlink:href="#path-1"></use><path stroke="#383838" stroke-width="1" d="M10,13.5 C12.8548621,13.5 15.2803301,12.4163079 17.1681368,10.6046208 C18.5279933,9.29959603 19.5,7.62094407 19.5,7 C19.5,6.37905593 18.5279933,4.70040397 17.1681368,3.39537917 C15.2803301,1.58369211 12.8548621,0.5 10,0.5 C7.1451379,0.5 4.71966987,1.58369211 2.83186325,3.39537917 C1.47200671,4.70040397 0.5,6.37905593 0.5,7 C0.5,7.62094407 1.47200671,9.29959603 2.83186325,10.6046208 C4.71966987,12.4163079 7.1451379,13.5 10,13.5 Z"></path></g><ellipse fill="#383838" cx="9.99945311" cy="7" rx="3.49945311" ry="3.5"></ellipse></g></g></g></svg>
