<?xml version="1.0" encoding="utf-8"?><svg version="1.1" id="Layer_1" xmlns="http://www.w3.org/2000/svg" xmlns:xlink="http://www.w3.org/1999/xlink" x="0px" y="0px" width="24" height="96" viewBox="0 0 24 96" style="enable-background:new 0 0 24 96;" xml:space="preserve"><style type="text/css">.st0{fill:#606065;} .st1{fill:#2D2D32;} .st2{fill:#FFFFFF;}</style><g id="Icons"><path class="st0" d="M6.5,7.8c1.5,0,2.8-0.9,3.5-2.1c0.7,1.3,2,2.1,3.5,2.1c1.5,0,2.8-0.9,3.5-2.1c0.7,1.3,2,2.1,3.5,2.1
		c0.8,0,1.6-0.2,2.3-0.7C23,6.9,23,6.6,22.8,6.4c-0.2-0.2-0.4-0.3-0.7-0.1c-0.5,0.3-1.1,0.5-1.7,0.5c-1.4-0.1-2.6-1.1-3-2.5
		C17.3,4.1,17,4,16.8,4.1c-0.1,0.1-0.2,0.1-0.2,0.2c-0.4,1.4-1.6,2.4-3,2.5c-1.4-0.1-2.6-1.1-3-2.5C10.4,4.1,10.1,4,9.8,4.1
		C9.7,4.2,9.6,4.2,9.6,4.4C9.2,5.8,7.9,6.8,6.5,6.8c-0.6,0-1.2-0.2-1.7-0.5C4.5,6.1,4.2,6.2,4,6.4C3.9,6.6,3.9,6.9,4.1,7.1
		c0,0,0,0,0,0C4.8,7.6,5.6,7.8,6.5,7.8z"/><path class="st0" d="M22.2,18.3c-0.5,0.3-1.1,0.5-1.7,0.5c-1.4-0.1-2.6-1.1-3-2.5c-0.1-0.3-0.4-0.4-0.7-0.2
		c-0.1,0.1-0.2,0.1-0.2,0.2c-0.4,1.4-1.6,2.4-3,2.5c-1.4-0.1-2.6-1.1-3-2.5c-0.1-0.3-0.4-0.4-0.7-0.2c-0.1,0.1-0.2,0.1-0.2,0.2
		c-0.4,1.4-1.6,2.4-3,2.5c-0.6,0-1.2-0.2-1.7-0.5c-0.2-0.2-0.5-0.1-0.7,0.1C4,18.6,4,18.9,4.2,19.1c0,0,0,0,0,0
		c0.6,0.4,1.4,0.7,2.2,0.7c1.5,0,2.8-0.9,3.5-2.1c0.7,1.3,2,2.1,3.5,2.1c1.5,0,2.8-0.9,3.5-2.1c0.7,1.3,2,2.1,3.5,2.1
		c0.8,0,1.6-0.2,2.3-0.7c0.2-0.2,0.3-0.5,0.1-0.7C22.7,18.2,22.4,18.2,22.2,18.3L22.2,18.3z"/><path class="st0" d="M6.9,11.7c0.7,1.3,2,2.1,3.5,2.1c1.5,0,2.8-0.9,3.5-2.1c0.7,1.3,2,2.1,3.5,2.1c0.8,0,1.6-0.2,2.3-0.7
		c0.2-0.2,0.3-0.5,0.1-0.7c-0.2-0.2-0.4-0.3-0.7-0.1c-0.5,0.3-1.1,0.5-1.7,0.5c-1.4-0.1-2.6-1.1-3-2.5c-0.1-0.3-0.4-0.4-0.7-0.2
		c-0.1,0.1-0.2,0.1-0.2,0.2c-0.4,1.4-1.6,2.4-3,2.5c-1.4-0.1-2.6-1.1-3-2.5c-0.1-0.3-0.4-0.4-0.7-0.2c-0.1,0.1-0.2,0.1-0.2,0.2
		c-0.4,1.4-1.6,2.4-3,2.5c-0.6,0-1.2-0.2-1.7-0.5c-0.2-0.2-0.5-0.1-0.7,0.1C1,12.6,1,12.9,1.3,13.1c0,0,0,0,0,0
		c0.6,0.4,1.4,0.7,2.1,0.7C4.9,13.8,6.2,13,6.9,11.7z"/></g><g id="Icons_1_"><path class="st1" d="M6.5,31.8c1.5,0,2.8-0.9,3.5-2.1c0.7,1.3,2,2.1,3.5,2.1c1.5,0,2.8-0.9,3.5-2.1c0.7,1.3,2,2.1,3.5,2.1
		c0.8,0,1.6-0.2,2.3-0.7c0.2-0.2,0.3-0.5,0.1-0.7c-0.2-0.2-0.4-0.3-0.7-0.1c-0.5,0.3-1.1,0.5-1.7,0.5c-1.4-0.1-2.6-1.1-3-2.5
		c-0.1-0.3-0.4-0.4-0.7-0.2c-0.1,0.1-0.2,0.1-0.2,0.2c-0.4,1.4-1.6,2.4-3,2.5c-1.4-0.1-2.6-1.1-3-2.5c-0.1-0.3-0.4-0.4-0.7-0.2
		c-0.1,0.1-0.2,0.1-0.2,0.2c-0.4,1.4-1.7,2.4-3.1,2.5c-0.6,0-1.2-0.2-1.7-0.5c-0.2-0.2-0.5-0.1-0.7,0.1c-0.2,0.2-0.1,0.5,0.1,0.7
		c0,0,0,0,0,0C4.8,31.6,5.6,31.8,6.5,31.8z"/><path class="st1" d="M22.2,42.3c-0.5,0.3-1.1,0.5-1.7,0.5c-1.4-0.1-2.6-1.1-3-2.5c-0.1-0.3-0.4-0.4-0.7-0.2
		c-0.1,0.1-0.2,0.1-0.2,0.2c-0.4,1.4-1.6,2.4-3,2.5c-1.4-0.1-2.6-1.1-3-2.5c-0.1-0.3-0.4-0.4-0.7-0.2c-0.1,0.1-0.2,0.1-0.2,0.2
		c-0.4,1.4-1.6,2.4-3,2.5c-0.6,0-1.2-0.2-1.7-0.5c-0.2-0.2-0.5-0.1-0.7,0.1S4,42.9,4.2,43.1c0,0,0,0,0,0c0.6,0.4,1.4,0.7,2.2,0.7
		c1.5,0,2.8-0.9,3.5-2.1c0.7,1.3,2,2.1,3.5,2.1c1.5,0,2.8-0.9,3.5-2.1c0.7,1.3,2,2.1,3.5,2.1c0.8,0,1.6-0.2,2.3-0.7
		c0.2-0.2,0.3-0.5,0.1-0.7C22.7,42.2,22.4,42.2,22.2,42.3L22.2,42.3z"/><path class="st1" d="M6.9,35.7c0.7,1.3,2,2.1,3.5,2.1c1.5,0,2.8-0.9,3.5-2.1c0.7,1.3,2,2.1,3.5,2.1c0.8,0,1.6-0.2,2.3-0.7
		c0.2-0.2,0.3-0.5,0.1-0.7c-0.2-0.2-0.4-0.3-0.7-0.1c-0.5,0.3-1.1,0.5-1.7,0.5c-1.4-0.1-2.6-1.1-3-2.5c-0.1-0.3-0.4-0.4-0.7-0.2
		c-0.1,0.1-0.2,0.1-0.2,0.2c-0.4,1.4-1.6,2.4-3,2.5c-1.4-0.1-2.6-1.1-3-2.5c-0.1-0.3-0.4-0.4-0.7-0.2c-0.1,0.1-0.2,0.1-0.2,0.2
		c-0.4,1.4-1.6,2.4-3,2.5c-0.6,0-1.2-0.2-1.7-0.5c-0.2-0.2-0.5-0.1-0.7,0.1S1,36.9,1.3,37.1c0,0,0,0,0,0c0.6,0.4,1.4,0.7,2.1,0.7
		C4.9,37.8,6.2,37,6.9,35.7z"/></g><g id="Icons_2_"><path class="st2" d="M6.5,55.8c1.5,0,2.8-0.9,3.5-2.1c0.7,1.3,2,2.1,3.5,2.1c1.5,0,2.8-0.9,3.5-2.1c0.7,1.3,2,2.1,3.5,2.1
		c0.8,0,1.6-0.2,2.3-0.7c0.2-0.2,0.3-0.5,0.1-0.7c-0.2-0.2-0.4-0.3-0.7-0.1c-0.5,0.3-1.1,0.5-1.7,0.5c-1.4-0.1-2.6-1.1-3-2.5
		c-0.1-0.3-0.4-0.4-0.7-0.2c-0.1,0.1-0.2,0.1-0.2,0.2c-0.4,1.4-1.6,2.4-3,2.5c-1.4-0.1-2.6-1.1-3-2.5c-0.1-0.3-0.4-0.4-0.7-0.2
		c-0.1,0.1-0.2,0.1-0.2,0.2c-0.4,1.4-1.7,2.4-3.1,2.5c-0.6,0-1.2-0.2-1.7-0.5c-0.2-0.2-0.5-0.1-0.7,0.1c-0.2,0.2-0.1,0.5,0.1,0.7
		c0,0,0,0,0,0C4.8,55.6,5.6,55.8,6.5,55.8z"/><path class="st2" d="M22.2,66.3c-0.5,0.3-1.1,0.5-1.7,0.5c-1.4-0.1-2.6-1.1-3-2.5c-0.1-0.3-0.4-0.4-0.7-0.2
		c-0.1,0.1-0.2,0.1-0.2,0.2c-0.4,1.4-1.6,2.4-3,2.5c-1.4-0.1-2.6-1.1-3-2.5c-0.1-0.3-0.4-0.4-0.7-0.2c-0.1,0.1-0.2,0.1-0.2,0.2
		c-0.4,1.4-1.6,2.4-3,2.5c-0.6,0-1.2-0.2-1.7-0.5c-0.2-0.2-0.5-0.1-0.7,0.1C4,66.6,4,66.9,4.2,67.1c0,0,0,0,0,0
		c0.6,0.4,1.4,0.7,2.2,0.7c1.5,0,2.8-0.9,3.5-2.1c0.7,1.3,2,2.1,3.5,2.1c1.5,0,2.8-0.9,3.5-2.1c0.7,1.3,2,2.1,3.5,2.1
		c0.8,0,1.6-0.2,2.3-0.7c0.2-0.2,0.3-0.5,0.1-0.7C22.7,66.2,22.4,66.2,22.2,66.3L22.2,66.3z"/><path class="st2" d="M6.9,59.7c0.7,1.3,2,2.1,3.5,2.1c1.5,0,2.8-0.9,3.5-2.1c0.7,1.3,2,2.1,3.5,2.1c0.8,0,1.6-0.2,2.3-0.7
		c0.2-0.2,0.3-0.5,0.1-0.7c-0.2-0.2-0.4-0.3-0.7-0.1c-0.5,0.3-1.1,0.5-1.7,0.5c-1.4-0.1-2.6-1.1-3-2.5c-0.1-0.3-0.4-0.4-0.7-0.2
		c-0.1,0.1-0.2,0.1-0.2,0.2c-0.4,1.4-1.6,2.4-3,2.5c-1.4-0.1-2.6-1.1-3-2.5c-0.1-0.3-0.4-0.4-0.7-0.2c-0.1,0.1-0.2,0.1-0.2,0.2
		c-0.4,1.4-1.6,2.4-3,2.5c-0.6,0-1.2-0.2-1.7-0.5c-0.2-0.2-0.5-0.1-0.7,0.1S1,60.9,1.3,61.1c0,0,0,0,0,0c0.6,0.4,1.4,0.7,2.1,0.7
		C4.9,61.8,6.2,61,6.9,59.7z"/></g></svg>