<svg xmlns="http://www.w3.org/2000/svg" xmlns:xlink="http://www.w3.org/1999/xlink" width="400" height="42" viewBox="0 0 400 42" version="1.1"><g id="Canvas" transform="translate(-9227 1017)"><g id="strava-premium-orange"><g id="Shape"><use xlink:href="#path0_fill" transform="translate(9227.09 -1016.86)" fill="#FFFFFF"/></g><g id="Group"><g id="Shape"><use xlink:href="#path1_fill" transform="translate(9434.98 -1009.43)" fill="#FFFFFF"/></g><g id="Shape"><use xlink:href="#path2_fill" transform="translate(9462.25 -1009.43)" fill="#FFFFFF"/></g><g id="Shape"><use xlink:href="#path3_fill" transform="translate(9490.52 -1009.43)" fill="#FFFFFF"/></g><g id="Shape"><use xlink:href="#path4_fill" transform="translate(9516.61 -1009.43)" fill="#FFFFFF"/></g><g id="Shape"><use xlink:href="#path5_fill" transform="translate(9553.26 -1009.43)" fill="#FFFFFF"/></g><g id="Shape"><use xlink:href="#path6_fill" transform="translate(9567.76 -1009.43)" fill="#FFFFFF"/></g><g id="Shape"><use xlink:href="#path7_fill" transform="translate(9597.21 -1009.43)" fill="#FFFFFF"/></g></g></g></g><defs><path id="path0_fill" fill-rule="evenodd" d="M175.634 0L156.019 38.7782 167.706 38.7782 175.634 23.1038 183.607 38.7782 195.295 38.7782 175.634 0ZM34.792 26.9998C34.792 25.1424 34.3838 23.5569 33.6592 22.2884 32.9346 20.9747 31.8467 19.8875 30.5332 18.8908 29.1289 17.9847 27.498 17.2146 25.5957 16.6257 23.6924 16.0368 21.5635 15.5385 19.2529 15.1307 17.3506 14.7684 16.082 14.4059 15.4023 14.0435 14.7227 13.6811 14.4062 13.2734 14.4062 12.7751L14.4062 12.6844C14.4062 12.2314 14.5869 11.869 15.04 11.5972 15.4482 11.3254 16.127 11.1895 17.0332 11.1895 18.71 11.1895 20.5215 11.4613 22.4697 12.0502 24.3721 12.6392 26.2295 13.5452 27.9512 14.8137L33.8857 6.61407C31.7568 4.93787 29.4004 3.66943 26.7275 2.854 24.1006 1.99329 20.9746 1.58557 17.4414 1.58557 14.9043 1.58557 12.6846 1.90271 10.7822 2.53693 8.87891 3.17114 7.24805 4.03186 5.93457 5.16443 4.62109 6.25165 3.62402 7.56537 2.94434 9.06036 2.26465 10.5553 1.94824 12.1862 1.94824 13.9076L1.94824 13.9982C1.94824 15.9009 2.35547 17.5317 3.26172 18.9361 4.07715 20.2498 5.20996 21.3371 6.61426 22.1978 8.01855 23.0585 9.64941 23.7834 11.5068 24.327 13.3643 24.8706 15.3115 25.3689 17.3506 25.7766 19.2988 26.139 20.6123 26.5015 21.3369 26.8639 22.0615 27.2263 22.4238 27.634 22.4238 28.1776L22.4238 28.2682C22.4238 28.7213 22.1982 29.129 21.6992 29.4008 21.2012 29.6725 20.4307 29.8085 19.2988 29.8085 17.124 29.8085 14.9492 29.4914 12.7754 28.8118 10.6006 28.1776 8.5166 27.0904 6.52344 25.5501L0 33.2967C2.31055 35.3353 5.07422 36.8755 8.29004 37.9175 11.5068 38.9594 14.9951 39.4577 18.71 39.4577 21.1562 39.4577 23.376 39.1859 25.3691 38.597 27.3623 38.0081 29.0381 37.1926 30.4424 36.1507 31.8018 35.0635 32.8887 33.795 33.6592 32.2548 34.4297 30.7145 34.792 28.993 34.792 27.0904L34.792 26.9998ZM44.8486 12.5939L34.1123 12.5939 34.1123 2.26508 67.7715 2.26508 67.7715 12.5939 57.0352 12.5939 57.0352 38.7782 44.8486 38.7782 44.8486 12.5939ZM140.662 38.7782L121.001 0 102.926 35.5618 96.583 26.3203C98.8027 25.233 100.57 23.7833 101.838 21.926 103.152 20.1139 103.786 17.8488 103.786 15.176L103.786 15.0854C103.786 13.2281 103.515 11.5972 102.971 10.1929 102.428 8.78851 101.612 7.52008 100.479 6.4328 99.2109 5.16437 97.4893 4.12244 95.4053 3.39764 93.2764 2.6275 90.6035 2.26508 87.3418 2.26508L69.6289 2.26508 69.6289 38.7782 81.8154 38.7782 81.8154 28.3588 84.3066 28.3588 84.3975 28.3588 91.2832 38.7782 101.431 38.7782 105.19 38.7782 113.118 38.7782 121.046 23.1038 128.974 38.7782 140.662 38.7782ZM91.6455 15.9915C91.6455 14.8136 91.2373 13.9529 90.377 13.364 89.5615 12.775 88.4287 12.5032 86.9785 12.5032L81.6787 12.5032 81.6787 19.6609 86.9336 19.6609C88.3838 19.6609 89.5615 19.3438 90.377 18.7095 91.1924 18.0753 91.6455 17.2146 91.6455 16.0821L91.6455 15.9915ZM148.317 17.9847L156.29 2.26508 167.933 2.26508 148.317 41.0433 128.656 2.26508 140.344 2.26508 148.317 17.9847Z"/><path id="path1_fill" fill-rule="evenodd" d="M0 0L0 26.0031 3.66895 26.0031 3.66895 16.1727 10.1924 16.1727C12.8652 16.1727 14.9951 15.4479 16.5801 14.0435 18.166 12.5939 18.9365 10.6459 18.9365 8.10901 18.9365 5.57208 18.166 3.62415 16.5352 2.1745 14.9492 0.724854 12.8203 0 10.1924 0L0 0ZM10.0566 12.775L3.75977 12.775 3.75977 3.48822 10.0566 3.48822C11.5068 3.48822 12.7295 3.85065 13.6816 4.62079 14.6328 5.34558 15.1309 6.52344 15.1309 8.10901 15.1309 9.60394 14.6328 10.7365 13.6816 11.5519 12.7295 12.3673 11.5068 12.775 10.0566 12.775Z"/><path id="path2_fill" fill-rule="evenodd" d="M0 0L0 26.0031 3.71484 26.0031 3.71484 15.7197 8.96973 15.7197 14.4512 26.0031 18.5283 26.0031 12.8652 15.4025C14.8594 14.9948 16.3535 14.1794 17.3955 13.0016 18.4375 11.8237 18.9365 10.1476 18.9365 7.9278 18.9365 5.39087 18.166 3.44293 16.5801 2.08386 14.9951 0.679504 12.8652 0 10.1924 0L0 0ZM9.87598 12.4127L3.71484 12.4127 3.71484 3.39764 9.83008 3.39764C13.4092 3.39764 15.1758 4.89258 15.1758 7.9278 15.1758 9.46808 14.6777 10.6006 13.7266 11.3254 12.7754 12.0502 11.5068 12.4127 9.87598 12.4127Z"/><path id="path3_fill" d="M0 26.0484L0 0 15.9009 0 15.9009 3.44292 3.71473 3.44292 3.71473 11.0083 14.8589 11.0083 14.8589 14.3153 3.71473 14.3153 3.71473 22.6055 15.9009 22.6055 15.9009 26.0031 0 26.0031 0 26.0484Z"/><path id="path4_fill" d="M0 26.0484L0 0 4.71137 0 12.6392 18.9361 12.7298 18.9361 20.6575 1.60944e-15 25.3236 1.60944e-15 25.3236 26.0031 21.6089 26.0031 21.6089 6.25162 21.5183 6.25162 13.0922 26.0031 12.1861 26.0031 3.76003 6.25162 3.66943 6.25162 3.66943 26.0031 0 26.0031 0 26.0484Z"/><path id="path5_fill" d="M0 26.0484L0 0 3.71474 0 3.71474 26.0031 0 26.0031 0 26.0484Z"/><path id="path6_fill" d="M0 17.577L0 0 3.71473 0 3.71473 17.3505C3.71473 19.2079 4.21305 20.6122 5.16439 21.6089 6.11572 22.6055 7.52007 23.1038 9.42274 23.1038 11.3254 23.1038 12.7298 22.6055 13.6811 21.6542 14.6324 20.6575 15.1307 19.2532 15.1307 17.4411L15.1307 0 18.8455 0 18.8455 17.5317C18.8455 20.4763 18.0301 22.7414 16.3539 24.2364 14.6777 25.7766 12.3673 26.5467 9.42274 26.5467 6.47814 26.5467 4.16775 25.7766 2.49159 24.2364 0.81543 22.7414 0 20.5216 0 17.577Z"/><path id="path7_fill" d="M0 26.0484L0 0 4.71137 0 12.5939 18.9814 12.6845 18.9814 20.6122 0.0453016 25.2783 0.0453016 25.2783 26.0484 21.5636 26.0484 21.5636 6.25162 21.473 6.25162 13.0469 26.0031 12.1408 26.0031 3.71473 6.25162 3.62413 6.25162 3.62413 26.0031 0 26.0031 0 26.0484Z"/></defs></svg>